<svg width="114" height="8" viewBox="0 0 114 8" fill="none" xmlns="http://www.w3.org/2000/svg">
<path d="M0 1.6205V7.28683H2.01749C3.5248 7.28683 4.39827 6.06968 4.39827 4.466C4.39827 2.8541 3.5248 1.6205 2.01749 1.6205H0ZM0.510169 6.77694V2.13039H2.01749C3.23107 2.13039 3.88811 3.15016 3.88811 4.466C3.88811 5.77361 3.23107 6.77694 2.01749 6.77694H0.510169Z" fill="#A1A1A1"/>
<path d="M6.1111 4.76206H8.32183V4.25218H6.1111V2.13039H8.64648V1.6205H5.60866V7.28683H8.73151V6.77694H6.1111V4.76206Z" fill="#A1A1A1"/>
<path d="M11.233 6.43153L9.88803 1.6205H9.3624L10.9702 7.28683H11.5036L13.1036 1.6205H12.578L11.233 6.43153Z" fill="#A1A1A1"/>
<path d="M14.626 4.76206H16.8367V4.25218H14.626V2.13039H17.1614V1.6205H14.1236V7.28683H17.2464V6.77694H14.626V4.76206Z" fill="#A1A1A1"/>
<path d="M18.944 1.6205H18.4338V7.28683H21.2088V6.77694H18.944V1.6205Z" fill="#A1A1A1"/>
<path d="M24.1795 7.38551C25.6946 7.38551 26.8695 6.06968 26.8695 4.466C26.8695 2.8541 25.6946 1.52182 24.1795 1.52182C22.6645 1.52182 21.4895 2.8541 21.4895 4.466C21.4895 6.06968 22.6645 7.38551 24.1795 7.38551ZM24.1795 6.87563C22.9505 6.87563 21.9997 5.78184 21.9997 4.466C21.9997 3.15016 22.9505 2.0317 24.1795 2.0317C25.4086 2.0317 26.3593 3.15016 26.3593 4.466C26.3593 5.78184 25.4086 6.87563 24.1795 6.87563Z" fill="#A1A1A1"/>
<path d="M28.0659 1.6205V7.28683H28.5761V5.07457H30.1375C31.2506 5.07457 31.6835 4.22751 31.6835 3.34754C31.6835 2.4758 31.2506 1.6205 30.1607 1.6205H28.0659ZM28.5761 4.56469V2.13039H30.153C30.8873 2.13039 31.1733 2.73896 31.1733 3.34754C31.1733 3.96434 30.8796 4.56469 30.1143 4.56469H28.5761Z" fill="#A1A1A1"/>
<path d="M33.2636 4.76206H35.4744V4.25218H33.2636V2.13039H35.799V1.6205H32.7612V7.28683H35.8841V6.77694H33.2636V4.76206Z" fill="#A1A1A1"/>
<path d="M37.0715 1.6205V7.28683H39.089C40.5963 7.28683 41.4698 6.06968 41.4698 4.466C41.4698 2.8541 40.5963 1.6205 39.089 1.6205H37.0715ZM37.5817 6.77694V2.13039H39.089C40.3026 2.13039 40.9596 3.15016 40.9596 4.466C40.9596 5.77361 40.3026 6.77694 39.089 6.77694H37.5817Z" fill="#A1A1A1"/>
<path d="M47.3468 4.26863C47.8415 4.0548 48.0502 3.52847 48.0502 3.01858C48.0502 2.13861 47.4937 1.6205 46.6356 1.6205H44.7032V7.28683H46.8289C47.7719 7.28683 48.3362 6.53022 48.3362 5.72427C48.3362 5.13214 48.027 4.45778 47.3468 4.26863ZM47.54 3.0597C47.54 3.61893 47.254 4.0548 46.7284 4.0548H45.2134V2.13039H46.6279C47.1922 2.13039 47.54 2.48402 47.54 3.0597ZM45.2134 6.77694V4.53179H46.7207C47.4164 4.53179 47.826 5.07457 47.826 5.68315C47.826 6.26705 47.4318 6.77694 46.7439 6.77694H45.2134Z" fill="#A1A1A1"/>
<path d="M50.9367 4.10415L49.2748 1.6205H48.6719L50.6739 4.63048V7.28683H51.1841V4.63048L53.217 1.6205H52.6063L50.9367 4.10415Z" fill="#A1A1A1"/>
<path d="M58.1735 5.71605V5.02523H55.499V5.71605H58.1735Z" fill="#A1A1A1"/>
<path d="M64.47 7.39961C66.1927 7.39961 67.5708 5.8864 67.5708 4.05363C67.5708 2.21146 66.1927 0.698242 64.47 0.698242C62.7386 0.698242 61.3781 2.21146 61.3781 4.05363C61.3781 5.8864 62.7386 7.39961 64.47 7.39961ZM64.47 6.16837C63.3746 6.16837 62.6061 5.21908 62.6061 4.05363C62.6061 2.88817 63.3746 1.92949 64.47 1.92949C65.5566 1.92949 66.334 2.88817 66.334 4.05363C66.334 5.21908 65.5566 6.16837 64.47 6.16837Z" fill="#A1A1A1"/>
<path d="M68.6853 0.811028V7.28683H69.9132V5.02171H71.1677C72.5458 5.02171 73.1553 3.98784 73.1553 2.92577C73.1553 1.8637 72.5458 0.811028 71.1677 0.811028H68.6853ZM69.9132 3.87505V1.96709H71.1235C71.6977 1.96709 71.9186 2.45583 71.9186 2.92577C71.9186 3.38631 71.6977 3.87505 71.1058 3.87505H69.9132Z" fill="#A1A1A1"/>
<path d="M76.8585 7.39961C78.5811 7.39961 79.9593 5.8864 79.9593 4.05363C79.9593 2.21146 78.5811 0.698242 76.8585 0.698242C75.127 0.698242 73.7665 2.21146 73.7665 4.05363C73.7665 5.8864 75.127 7.39961 76.8585 7.39961ZM76.8585 6.16837C75.7631 6.16837 74.9945 5.21908 74.9945 4.05363C74.9945 2.88817 75.7631 1.92949 76.8585 1.92949C77.9451 1.92949 78.7225 2.88817 78.7225 4.05363C78.7225 5.21908 77.9451 6.16837 76.8585 6.16837Z" fill="#A1A1A1"/>
<path d="M81.0737 0.811028V7.28683H82.3017V5.02171H83.5561C84.9342 5.02171 85.5438 3.98784 85.5438 2.92577C85.5438 1.8637 84.9342 0.811028 83.5561 0.811028H81.0737ZM82.3017 3.87505V1.96709H83.5119C84.0862 1.96709 84.307 2.45583 84.307 2.92577C84.307 3.38631 84.0862 3.87505 83.4943 3.87505H82.3017Z" fill="#A1A1A1"/>
<path d="M92.8512 0.811028H92.3124L89.9713 5.95219L87.6303 0.811028H87.0826L86.3317 7.28683H86.8971L87.5243 1.90129L89.7063 6.61951H90.2452L92.4095 1.92009L93.0368 7.28683H93.611L92.8512 0.811028Z" fill="#A1A1A1"/>
<path d="M95.6275 4.40138H98.154V3.81866H95.6275V1.39376H98.5251V0.811028H95.0533V7.28683H98.6222V6.7041H95.6275V4.40138Z" fill="#A1A1A1"/>
<path d="M99.9793 0.811028V7.28683H102.285C104.008 7.28683 105.006 5.8958 105.006 4.06303C105.006 2.22085 104.008 0.811028 102.285 0.811028H99.9793ZM100.562 6.7041V1.39376H102.285C103.672 1.39376 104.423 2.55921 104.423 4.06303C104.423 5.55744 103.672 6.7041 102.285 6.7041H100.562Z" fill="#A1A1A1"/>
<path d="M106.972 7.28683V0.811028H106.389V7.28683H106.972Z" fill="#A1A1A1"/>
<path d="M113.179 7.28683L110.864 0.811028H110.246L107.922 7.28683H108.541L109.15 5.56684H111.96L112.569 7.28683H113.179ZM110.555 1.62873L111.756 5.01231H109.354L110.555 1.62873Z" fill="#A1A1A1"/>
</svg>
